<?xml version="1.0" encoding="UTF-8"?>
<svg version="1.1" xmlns="http://www.w3.org/2000/svg" width="200" height="200">
<path d="M0 0 C1.09441406 0.64453125 2.18882812 1.2890625 3.31640625 1.953125 C23.4897152 14.21209942 41.35938248 31.80980861 48.0625 55.125 C54.89358644 84.74299521 47.67509146 116.19779739 32.28515625 141.859375 C18.96230467 162.04741363 -2.76066661 174.75422814 -26 180 C-50.34811264 184.27159871 -75.04879431 178.09891503 -95.33398438 164.21630859 C-103.95060558 157.92556902 -110.06210429 150.30437614 -112.8125 139.9375 C-112.874375 138.968125 -112.93625 137.99875 -113 137 C-113.05027344 136.33613281 -113.10054687 135.67226562 -113.15234375 134.98828125 C-113.48222308 127.42744708 -112.05831554 120.17688467 -107.3125 114.125 C-98.79623108 105.29791835 -85.55164805 104.25886958 -73.9140625 103.04296875 C-73.234505 102.9707309 -72.55494751 102.89849304 -71.85479736 102.82406616 C-69.07322886 102.53289929 -66.29188905 102.24751848 -63.50634766 101.99682617 C-53.21364112 101.0508491 -46.62110614 99.43900103 -39.79296875 91.40234375 C-39.26316406 90.58894531 -38.73335938 89.77554688 -38.1875 88.9375 C-37.37345703 87.71353516 -37.37345703 87.71353516 -36.54296875 86.46484375 C-36.03378906 85.65144531 -35.52460937 84.83804688 -35 84 C-34.39800781 83.17628906 -33.79601562 82.35257812 -33.17578125 81.50390625 C-31.74432585 79.07952452 -31.74432585 79.07952452 -32.4296875 76.5546875 C-34.50559037 73.17747238 -37.17675967 70.71852108 -40.125 68.125 C-40.71104004 67.59616211 -41.29708008 67.06732422 -41.90087891 66.52246094 C-45.0192753 63.71788166 -48.18623716 60.97425802 -51.375 58.25 C-59.38334169 51.24058465 -64.37819718 45.21291267 -65.3125 34.375 C-65.57431682 26.12777032 -65.36318898 19.77263779 -59.66796875 13.54296875 C-57.86440356 11.88551517 -55.97053364 10.45706126 -54 9 C-53.24420654 8.41484619 -53.24420654 8.41484619 -52.47314453 7.81787109 C-37.84418987 -3.50190146 -17.41008515 -10.49684226 0 0 Z " fill="#F0BB7D" transform="translate(131,8)"/>
<path d="M0 0 C1.09441406 0.64453125 2.18882812 1.2890625 3.31640625 1.953125 C23.4897152 14.21209942 41.35938248 31.80980861 48.0625 55.125 C54.89358644 84.74299521 47.67509146 116.19779739 32.28515625 141.859375 C18.96230467 162.04741363 -2.76066661 174.75422814 -26 180 C-50.34811264 184.27159871 -75.04879431 178.09891503 -95.33398438 164.21630859 C-103.95060558 157.92556902 -110.06210429 150.30437614 -112.8125 139.9375 C-112.874375 138.968125 -112.93625 137.99875 -113 137 C-113.05027344 136.33613281 -113.10054687 135.67226562 -113.15234375 134.98828125 C-113.48222308 127.42744708 -112.05831554 120.17688467 -107.3125 114.125 C-98.79623108 105.29791835 -85.55164805 104.25886958 -73.9140625 103.04296875 C-73.234505 102.9707309 -72.55494751 102.89849304 -71.85479736 102.82406616 C-69.07322886 102.53289929 -66.29188905 102.24751848 -63.50634766 101.99682617 C-53.21364112 101.0508491 -46.62110614 99.43900103 -39.79296875 91.40234375 C-39.26316406 90.58894531 -38.73335938 89.77554688 -38.1875 88.9375 C-37.37345703 87.71353516 -37.37345703 87.71353516 -36.54296875 86.46484375 C-36.03378906 85.65144531 -35.52460937 84.83804688 -35 84 C-34.39800781 83.17628906 -33.79601562 82.35257812 -33.17578125 81.50390625 C-31.74432585 79.07952452 -31.74432585 79.07952452 -32.4296875 76.5546875 C-34.50559037 73.17747238 -37.17675967 70.71852108 -40.125 68.125 C-40.71104004 67.59616211 -41.29708008 67.06732422 -41.90087891 66.52246094 C-45.0192753 63.71788166 -48.18623716 60.97425802 -51.375 58.25 C-59.38334169 51.24058465 -64.37819718 45.21291267 -65.3125 34.375 C-65.57431682 26.12777032 -65.36318898 19.77263779 -59.66796875 13.54296875 C-57.86440356 11.88551517 -55.97053364 10.45706126 -54 9 C-53.24420654 8.41484619 -53.24420654 8.41484619 -52.47314453 7.81787109 C-37.84418987 -3.50190146 -17.41008515 -10.49684226 0 0 Z M-43.33984375 15.5625 C-45 17 -45 17 -48.1875 19 C-52.49778757 22.06509339 -54.65518993 25.00776402 -55.5625 30.25 C-53.26473314 45.56844574 -38.78184413 55.06944651 -27.3046875 64 C-24.02158594 66.8490644 -21.35578259 69.24986357 -20.46875 73.61328125 C-20.5446188 80.16644912 -21.47517192 84.49928238 -25 90 C-25.57105469 90.96164063 -26.14210938 91.92328125 -26.73046875 92.9140625 C-31.8872874 101.21026176 -37.56233462 107.77308311 -47 111 C-49.67135901 111.39490115 -52.29252034 111.71472149 -54.9765625 111.96484375 C-56.55078769 112.12689056 -58.12500623 112.28900204 -59.69921875 112.45117188 C-62.15387217 112.69507468 -64.60879391 112.93592481 -67.06396484 113.17456055 C-85.05580859 114.24214416 -85.05580859 114.24214416 -100 123 C-102.90855757 127.72011592 -102.58247612 132.63076503 -102 138 C-99.18651976 148.09647655 -89.99872934 154.62962344 -81.38745117 159.69482422 C-63.40975328 169.62147974 -43.59810417 173.57913059 -23.4375 168.4375 C-11.86812892 164.46488463 -1.4949538 158.67974204 8 151 C8.9384375 150.24976563 9.876875 149.49953125 10.84375 148.7265625 C17.95459757 142.69015618 22.63536848 136.21012184 27 128 C27.54398438 126.98164063 28.08796875 125.96328125 28.6484375 124.9140625 C35.86609566 110.3688326 39.18049572 94.99999219 39.25 78.875 C39.270625 77.70195313 39.29125 76.52890625 39.3125 75.3203125 C39.35805884 65.06957282 38.16282472 56.4038519 32 48 C31.3994661 46.75817199 30.81741282 45.50730683 30.25 44.25 C23.05856573 29.58839369 9.80041266 19.02843912 -4 11 C-4.75796875 10.52175781 -5.5159375 10.04351562 -6.296875 9.55078125 C-18.77695499 2.65771381 -33.43956581 6.54174561 -43.33984375 15.5625 Z " fill="#696A6F" transform="translate(131,8)"/>
<path d="M0 0 C1.65 0.66 3.3 1.32 5 2 C5.04898438 2.75925781 5.09796875 3.51851563 5.1484375 4.30078125 C5.26058594 5.79158203 5.26058594 5.79158203 5.375 7.3125 C5.47941406 8.79169922 5.47941406 8.79169922 5.5859375 10.30078125 C5.83865472 13.21528433 5.83865472 13.21528433 8 16 C8 16.99 8 17.98 8 19 C8.66 19 9.32 19 10 19 C10 20.32 10 21.64 10 23 C11.485 23.495 11.485 23.495 13 24 C13 24.66 13 25.32 13 26 C7.25 26.125 7.25 26.125 5 25 C4.505 26.485 4.505 26.485 4 28 C1.03 28.33 -1.94 28.66 -5 29 C-7 26 -7 26 -7 23 C-7.99 23 -8.98 23 -10 23 C-10.495 24.485 -10.495 24.485 -11 26 C-11.99 26.495 -11.99 26.495 -13 27 C-12.67 25.68 -12.34 24.36 -12 23 C-12.99 23 -13.98 23 -15 23 C-14.83242187 23.59167969 -14.66484375 24.18335938 -14.4921875 24.79296875 C-12.46924429 32.64147627 -12.46924429 32.64147627 -15 37 C-15.99 37 -16.98 37 -18 37 C-18.33 35.35 -18.66 33.7 -19 32 C-19.99 32.495 -19.99 32.495 -21 33 C-21 33.99 -21 34.98 -21 36 C-21.66 36 -22.32 36 -23 36 C-22.505 37.98 -22.505 37.98 -22 40 C-20.68 40 -19.36 40 -18 40 C-18 40.66 -18 41.32 -18 42 C-20.475 42.495 -20.475 42.495 -23 43 C-23 43.66 -23 44.32 -23 45 C-24.65 45 -26.3 45 -28 45 C-28 44.34 -28 43.68 -28 43 C-30.31 43.66 -32.62 44.32 -35 45 C-35 44.34 -35 43.68 -35 43 C-36.98 43.495 -36.98 43.495 -39 44 C-39.66 42.68 -40.32 41.36 -41 40 C-43.475 40.495 -43.475 40.495 -46 41 C-46.33 39.68 -46.66 38.36 -47 37 C-47.99 37 -48.98 37 -50 37 C-49.54177532 33.53058454 -49.10868317 30.32604951 -48 27 C-49.65 26.67 -51.3 26.34 -53 26 C-53 26.66 -53 27.32 -53 28 C-53.66 28 -54.32 28 -55 28 C-54.87625 29.11375 -54.87625 29.11375 -54.75 30.25 C-55 33 -55 33 -56.4375 35.0625 C-59.99762099 37.7542988 -63.87556641 39.34317625 -68 41 C-68 40.34 -68 39.68 -68 39 C-68.99 39 -69.98 39 -71 39 C-72.97686549 35.04626902 -72.42666818 30.30934862 -72 26 C-69.67481744 20.88459836 -66.17343127 18.04704115 -61 16 C-55.52209024 14.49020573 -50.27551317 13.5767279 -44.625 13.0703125 C-43.04681788 12.91333366 -41.46869447 12.75576359 -39.890625 12.59765625 C-37.44260264 12.35864525 -34.99440157 12.12448893 -32.54492188 11.90087891 C-30.15333406 11.67984403 -27.76437948 11.43892679 -25.375 11.1953125 C-24.65393066 11.13473663 -23.93286133 11.07416077 -23.18994141 11.01174927 C-17.05175294 10.36351084 -11.43240396 8.43240396 -7 4 C-5.33333333 3.33333333 -3.66666667 2.66666667 -2 2 C-1.34 1.34 -0.68 0.68 0 0 Z " fill="#FBC686" transform="translate(101,109)"/>
<path d="M0 0 C-0.33 1.65 -0.66 3.3 -1 5 C1.65228812 6.07525194 4.28368454 7.09456151 7 8 C7 7.01 7 6.02 7 5 C8.0725 5.20625 9.145 5.4125 10.25 5.625 C13.87619096 5.9876191 15.08291076 5.98362069 18 4 C13.0603782 15.88766126 -3.98774423 25.14870284 -15.40625 29.92578125 C-34.79357771 37.53172984 -54.38324358 37.25105143 -73.60791016 29.10009766 C-88.97939358 22.03090963 -88.97939358 22.03090963 -93 16 C-90.35748872 13.23737457 -88.98508143 12.08383672 -85.0625 11.75 C-82 12 -82 12 -80.125 13.5 C-79.75375 13.995 -79.3825 14.49 -79 15 C-79 13.68 -79 12.36 -79 11 C-76.03 11 -73.06 11 -70 11 C-70 11.66 -70 12.32 -70 13 C-64.94990405 13.93786082 -64.94990405 13.93786082 -60 13 C-60 13.66 -60 14.32 -60 15 C-59.34 15 -58.68 15 -58 15 C-57.505 18.96 -57.505 18.96 -57 23 C-56.566875 22.525625 -56.13375 22.05125 -55.6875 21.5625 C-54 20 -54 20 -51 19 C-50.505 17.515 -50.505 17.515 -50 16 C-48.68 16 -47.36 16 -46 16 C-46 15.34 -46 14.68 -46 14 C-44.02 14 -42.04 14 -40 14 C-39.67 13.01 -39.34 12.02 -39 11 C-37.63875 11.2784375 -37.63875 11.2784375 -36.25 11.5625 C-33.31685676 11.95734621 -31.7355343 11.94691572 -29 11 C-29 12.32 -29 13.64 -29 15 C-27.35 14.34 -25.7 13.68 -24 13 C-24 13.66 -24 14.32 -24 15 C-21.7763932 13.0745356 -21.7763932 13.0745356 -21 10 C-18.35509259 8.19032651 -16.04582887 7.01527629 -13 6 C-12.67 5.01 -12.34 4.02 -12 3 C-10.29296875 1.796875 -10.29296875 1.796875 -8.1875 0.75 C-7.50042969 0.39421875 -6.81335938 0.0384375 -6.10546875 -0.328125 C-3.64922558 -1.11193544 -2.39957614 -0.84119973 0 0 Z " fill="#D98E3B" transform="translate(132,143)"/>
<path d="M0 0 C0.99 0.66 1.98 1.32 3 2 C3 2.66 3 3.32 3 4 C4.65 4.33 6.3 4.66 8 5 C8 6.32 8 7.64 8 9 C6.68 8.67 5.36 8.34 4 8 C3.17361624 10.89234315 3 12.88742431 3 16 C3.66 16 4.32 16 5 16 C3.81826157 21.02238831 0.82156838 22.8962488 -3.22265625 25.66796875 C-5.13267047 26.89240079 -5.13267047 26.89240079 -6 29 C-6.66 29 -7.32 29 -8 29 C-8.0825 29.61875 -8.165 30.2375 -8.25 30.875 C-9 33 -9 33 -10.875 34.25 C-13 35 -13 35 -16 35 C-16.0825 35.61875 -16.165 36.2375 -16.25 36.875 C-17 39 -17 39 -18.8125 40.125 C-20.27083333 40.70833333 -21.72916667 41.29166667 -23.1875 41.875 C-25.20077462 42.86279272 -25.20077462 42.86279272 -25.75 45.125 C-25.8325 45.74375 -25.915 46.3625 -26 47 C-27.485 46.505 -27.485 46.505 -29 46 C-31.14255793 46.38932856 -31.14255793 46.38932856 -33 47 C-33.33 46.01 -33.66 45.02 -34 44 C-34.556875 44.185625 -35.11375 44.37125 -35.6875 44.5625 C-38.399133 45.07551165 -40.34371039 44.6640724 -43 44 C-43.495 44.99 -43.495 44.99 -44 46 C-45.98 46 -47.96 46 -50 46 C-50 46.66 -50 47.32 -50 48 C-51.32 48 -52.64 48 -54 48 C-54.0825 48.61875 -54.165 49.2375 -54.25 49.875 C-55 52 -55 52 -56.9375 53.125 C-57.618125 53.41375 -58.29875 53.7025 -59 54 C-59.66 54.66 -60.32 55.32 -61 56 C-61.70074844 52.846632 -62 50.27275026 -62 47 C-64.80469824 45.74538203 -64.80469824 45.74538203 -66.875 46.5625 C-69.75163253 47.15474787 -71.39719908 46.22910044 -74 45 C-74 44.34 -74 43.68 -74 43 C-74.7425 43.185625 -75.485 43.37125 -76.25 43.5625 C-78.94990963 43.99203108 -80.44631077 43.85122974 -83 43 C-83 44.32 -83 45.64 -83 47 C-84.485 46.505 -84.485 46.505 -86 46 C-86 45.34 -86 44.68 -86 44 C-89.3 44.66 -92.6 45.32 -96 46 C-96 46.66 -96 47.32 -96 48 C-99.45195767 46.5741914 -101.1014256 44.90253666 -103.25 41.875 C-103.77078125 41.15054688 -104.2915625 40.42609375 -104.828125 39.6796875 C-105.21484375 39.12539062 -105.6015625 38.57109375 -106 38 C-103 37 -103 37 -101 37 C-98.24504053 35.4459203 -95.63231019 33.75487346 -93 32 C-92.34 31.67 -91.68 31.34 -91 31 C-90.34444881 28.47266765 -90.34444881 28.47266765 -90 26 C-89.34 26 -88.68 26 -88 26 C-88 25.34 -88 24.68 -88 24 C-86.35 24.33 -84.7 24.66 -83 25 C-83.66 28.3 -84.32 31.6 -85 35 C-84.01 35 -83.02 35 -82 35 C-81.67 36.32 -81.34 37.64 -81 39 C-80.34 39 -79.68 39 -79 39 C-78.67 38.34 -78.34 37.68 -78 37 C-77.4225 37.66 -76.845 38.32 -76.25 39 C-74.00346023 41.44290923 -74.00346023 41.44290923 -70 41 C-70 41.66 -70 42.32 -70 43 C-69.401875 42.67 -68.80375 42.34 -68.1875 42 C-66 41 -66 41 -63 41 C-63 41.66 -63 42.32 -63 43 C-61.35 43 -59.7 43 -58 43 C-58 42.34 -58 41.68 -58 41 C-55.525 40.505 -55.525 40.505 -53 40 C-53 39.34 -53 38.68 -53 38 C-54.98 38.495 -54.98 38.495 -57 39 C-57.33 37.35 -57.66 35.7 -58 34 C-57.34 34 -56.68 34 -56 34 C-56 33.01 -56 32.02 -56 31 C-56.99 30.67 -57.98 30.34 -59 30 C-57.35 30 -55.7 30 -54 30 C-53.505 32.475 -53.505 32.475 -53 35 C-52.01 35 -51.02 35 -50 35 C-49.61936779 32.6739143 -49.28730055 30.33944736 -49 28 C-49.33 27.67 -49.66 27.34 -50 27 C-50.04080783 25.00041636 -50.04254356 22.99954746 -50 21 C-49.34 21 -48.68 21 -48 21 C-47.67 20.34 -47.34 19.68 -47 19 C-46.505 20.485 -46.505 20.485 -46 22 C-46.495 22.495 -46.495 22.495 -47 23 C-46.34 23.33 -45.68 23.66 -45 24 C-44.5859375 26.06640625 -44.5859375 26.06640625 -44.375 28.5625 C-44.30023438 29.38878906 -44.22546875 30.21507812 -44.1484375 31.06640625 C-44.09945312 31.70449219 -44.05046875 32.34257812 -44 33 C-43.01 33 -42.02 33 -41 33 C-41.495 31.02 -41.495 31.02 -42 29 C-39.00667261 29.9977758 -38.05233685 30.7522025 -36 33 C-37 32 -37 32 -38 29 C-30.375 27.75 -30.375 27.75 -27 30 C-27.33 28.35 -27.66 26.7 -28 25 C-27.27554688 24.87882812 -26.55109375 24.75765625 -25.8046875 24.6328125 C-20.71502427 23.75060421 -15.85116654 22.83557653 -11 21 C-11 19.35 -11 17.7 -11 16 C-13.31 16 -15.62 16 -18 16 C-17.34 14.68 -16.68 13.36 -16 12 C-13.69 12 -11.38 12 -9 12 C-9 11.01 -9 10.02 -9 9 C-9.99 8.67 -10.98 8.34 -12 8 C-11.34 6.68 -10.68 5.36 -10 4 C-9.319375 4.515625 -8.63875 5.03125 -7.9375 5.5625 C-4.19881168 7.39207088 -1.99556587 6.86178872 2 6 C1.401875 5.71125 0.80375 5.4225 0.1875 5.125 C-2 4 -2 4 -5 2 C-2.6875 0.875 -2.6875 0.875 0 0 Z " fill="#FBC384" transform="translate(136,111)"/>
<path d="M0 0 C0.99 0.66 1.98 1.32 3 2 C3 2.66 3 3.32 3 4 C5.475 4.495 5.475 4.495 8 5 C8 6.32 8 7.64 8 9 C6.68 8.67 5.36 8.34 4 8 C3.17361624 10.89234315 3 12.88742431 3 16 C3.66 16 4.32 16 5 16 C3.81826157 21.02238831 0.82156838 22.8962488 -3.22265625 25.66796875 C-5.13267047 26.89240079 -5.13267047 26.89240079 -6 29 C-6.66 29 -7.32 29 -8 29 C-8.0825 29.61875 -8.165 30.2375 -8.25 30.875 C-9 33 -9 33 -10.875 34.25 C-13 35 -13 35 -16 35 C-16.0825 35.61875 -16.165 36.2375 -16.25 36.875 C-17 39 -17 39 -18.8125 40.125 C-20.27083333 40.70833333 -21.72916667 41.29166667 -23.1875 41.875 C-25.20077462 42.86279272 -25.20077462 42.86279272 -25.75 45.125 C-25.8325 45.74375 -25.915 46.3625 -26 47 C-27.485 46.505 -27.485 46.505 -29 46 C-31.14255793 46.38932856 -31.14255793 46.38932856 -33 47 C-33.495 45.515 -33.495 45.515 -34 44 C-34.556875 44.20625 -35.11375 44.4125 -35.6875 44.625 C-38.659538 45.10695211 -40.31979941 44.26565028 -43 43 C-43 42.67 -43 42.34 -43 42 C-41.60974609 41.80083984 -41.60974609 41.80083984 -40.19140625 41.59765625 C-38.99386719 41.42105469 -37.79632813 41.24445313 -36.5625 41.0625 C-35.36753906 40.88847656 -34.17257813 40.71445313 -32.94140625 40.53515625 C-30.12044324 40.31014787 -30.12044324 40.31014787 -29 39 C-26.67182036 38.63239269 -24.3381615 38.29758419 -22 38 C-21.63192216 33.70575852 -22.63409171 31.54886244 -25 28 C-25 27.67 -25 27.34 -25 27 C-21.7 26.67 -18.4 26.34 -15 26 C-15 25.34 -15 24.68 -15 24 C-12 22 -12 22 -9 22 C-9 21.34 -9 20.68 -9 20 C-8.34 20 -7.68 20 -7 20 C-7 19.01 -7 18.02 -7 17 C-10.63 16.67 -14.26 16.34 -18 16 C-17.34 14.68 -16.68 13.36 -16 12 C-13.69 12 -11.38 12 -9 12 C-9 11.01 -9 10.02 -9 9 C-9.99 8.67 -10.98 8.34 -12 8 C-11.34 6.68 -10.68 5.36 -10 4 C-8.9790625 4.7734375 -8.9790625 4.7734375 -7.9375 5.5625 C-4.19881168 7.39207088 -1.99556587 6.86178872 2 6 C1.401875 5.71125 0.80375 5.4225 0.1875 5.125 C-2 4 -2 4 -5 2 C-2.6875 0.875 -2.6875 0.875 0 0 Z " fill="#E9A753" transform="translate(136,111)"/>
<path d="M0 0 C2.475 0.495 2.475 0.495 5 1 C4.34 4.3 3.68 7.6 3 11 C3.99 11 4.98 11 6 11 C6.33 12.32 6.66 13.64 7 15 C7.66 15 8.32 15 9 15 C9.33 14.34 9.66 13.68 10 13 C10.5775 13.66 11.155 14.32 11.75 15 C13.99653977 17.44290923 13.99653977 17.44290923 18 17 C18 17.66 18 18.32 18 19 C18.598125 18.67 19.19625 18.34 19.8125 18 C22 17 22 17 25 17 C25 17.66 25 18.32 25 19 C27.31 18.67 29.62 18.34 32 18 C32.495 18.99 32.495 18.99 33 20 C35.58605332 20.4683265 35.58605332 20.4683265 38.5625 20.625 C40.08037109 20.73714844 40.08037109 20.73714844 41.62890625 20.8515625 C42.80259766 20.92503906 42.80259766 20.92503906 44 21 C44 21.33 44 21.66 44 22 C42.02 22 40.04 22 38 22 C38 22.66 38 23.32 38 24 C36.68 24 35.36 24 34 24 C33.9175 24.61875 33.835 25.2375 33.75 25.875 C33 28 33 28 31.0625 29.125 C30.381875 29.41375 29.70125 29.7025 29 30 C28.34 30.66 27.68 31.32 27 32 C26.29925156 28.846632 26 26.27275026 26 23 C23.19530176 21.74538203 23.19530176 21.74538203 21.125 22.5625 C18.24836747 23.15474787 16.60280092 22.22910044 14 21 C14 20.34 14 19.68 14 19 C13.2575 19.185625 12.515 19.37125 11.75 19.5625 C9.05009037 19.99203108 7.55368923 19.85122974 5 19 C5 20.32 5 21.64 5 23 C4.01 22.67 3.02 22.34 2 22 C2 21.34 2 20.68 2 20 C-1.3 20.66 -4.6 21.32 -8 22 C-8 22.66 -8 23.32 -8 24 C-11.45195767 22.5741914 -13.1014256 20.90253666 -15.25 17.875 C-16.03117187 16.78832031 -16.03117187 16.78832031 -16.828125 15.6796875 C-17.21484375 15.12539062 -17.6015625 14.57109375 -18 14 C-15 13 -15 13 -13 13 C-10.24504053 11.4459203 -7.63231019 9.75487346 -5 8 C-4.34 7.67 -3.68 7.34 -3 7 C-2.34444881 4.47266765 -2.34444881 4.47266765 -2 2 C-1.34 2 -0.68 2 0 2 C0 1.34 0 0.68 0 0 Z " fill="#F0B063" transform="translate(48,135)"/>
<path d="M0 0 C2.83460569 1.43759835 5.54389354 2.93351507 8.2109375 4.66015625 C8.2109375 5.32015625 8.2109375 5.98015625 8.2109375 6.66015625 C7.2209375 6.99015625 6.2309375 7.32015625 5.2109375 7.66015625 C4.3034375 7.04140625 3.3959375 6.42265625 2.4609375 5.78515625 C-1.19618657 3.39395974 -3.44007143 2.73922881 -7.7890625 2.66015625 C-10.32790703 3.81581276 -10.32790703 3.81581276 -12.7890625 5.66015625 C-14.2165842 6.4086695 -15.65483125 7.13698125 -17.1015625 7.84765625 C-17.79894531 8.19183594 -18.49632813 8.53601562 -19.21484375 8.890625 C-19.73433594 9.14457031 -20.25382812 9.39851563 -20.7890625 9.66015625 C-20.7890625 10.32015625 -20.7890625 10.98015625 -20.7890625 11.66015625 C-23.1015625 12.34765625 -23.1015625 12.34765625 -25.7890625 12.66015625 C-27.45703125 11.1796875 -27.45703125 11.1796875 -28.7890625 9.66015625 C-35.48842721 11.87159703 -39.76606427 13.75975884 -43.7890625 19.66015625 C-42.4690625 20.98015625 -41.1490625 22.30015625 -39.7890625 23.66015625 C-40.7790625 23.99015625 -41.7690625 24.32015625 -42.7890625 24.66015625 C-42.2940625 25.54703125 -41.7990625 26.43390625 -41.2890625 27.34765625 C-39.84527576 30.53601863 -39.48746328 32.24203171 -39.7890625 35.66015625 C-44.05552355 32.20635445 -45.57579313 27.39677828 -46.2265625 22.09765625 C-45.56758563 16.91998084 -43.70602138 14.15037163 -39.578125 10.94140625 C-37.86539073 9.73985728 -36.13690475 8.56049452 -34.39453125 7.40234375 C-31.31320464 5.34196644 -28.40080133 3.10439492 -25.48046875 0.82421875 C-19.27478428 -3.44666802 -6.8340533 -2.80441962 0 0 Z " fill="#FAD8B5" transform="translate(121.7890625,16.33984375)"/>
<path d="M0 0 C0.061875 0.61875 0.12375 1.2375 0.1875 1.875 C0.80693523 4.23787497 0.80693523 4.23787497 3.3125 5.0625 C4.199375 5.371875 5.08625 5.68125 6 6 C7.36365283 6.95824253 8.70794169 7.94721175 10 9 C9.67 9.99 9.34 10.98 9 12 C9.00845896 14.80837365 9.12961325 17.60094868 9.2578125 20.40625 C9 23 9 23 7.6171875 24.78125 C4.32032116 27.26584492 1.95106135 27.10586235 -2.125 27.0625 C-3.22070312 27.05347656 -4.31640625 27.04445313 -5.4453125 27.03515625 C-6.70988281 27.01775391 -6.70988281 27.01775391 -8 27 C-8 26.34 -8 25.68 -8 25 C-6.96875 24.71125 -5.9375 24.4225 -4.875 24.125 C-1.54992003 23.17691202 1.72751453 22.11743406 5 21 C1.37 21 -2.26 21 -6 21 C-5.01 20.67 -4.02 20.34 -3 20 C-3 19.34 -3 18.68 -3 18 C-2.34 18 -1.68 18 -1 18 C-1 17.34 -1 16.68 -1 16 C-1.66 16 -2.32 16 -3 16 C-3 15.34 -3 14.68 -3 14 C-5.97 13.505 -5.97 13.505 -9 13 C-8.67 11.35 -8.34 9.7 -8 8 C-6.02 8 -4.04 8 -2 8 C-2 7.34 -2 6.68 -2 6 C-2.99 5.67 -3.98 5.34 -5 5 C-4 2 -4 2 -1.9375 0.8125 C-1.298125 0.544375 -0.65875 0.27625 0 0 Z " fill="#F9C88E" transform="translate(143,52)"/>
<path d="M0 0 C0.66 0 1.32 0 2 0 C-2.9396218 11.88766126 -19.98774423 21.14870284 -31.40625 25.92578125 C-38.70754778 28.79019332 -45.59378348 31.14193417 -53.51953125 31.09765625 C-54.54111328 31.09443359 -55.56269531 31.09121094 -56.61523438 31.08789062 C-57.67033203 31.07951172 -58.72542969 31.07113281 -59.8125 31.0625 C-60.88693359 31.05798828 -61.96136719 31.05347656 -63.06835938 31.04882812 C-65.71229683 31.03707729 -68.35611952 31.02064787 -71 31 C-71 30.67 -71 30.34 -71 30 C-70.40574219 29.98018066 -69.81148438 29.96036133 -69.19921875 29.93994141 C-66.46575581 29.84376007 -63.73296197 29.73446443 -61 29.625 C-59.59814453 29.57859375 -59.59814453 29.57859375 -58.16796875 29.53125 C-52.47930463 29.29256479 -47.48933692 28.48067641 -42 27 C-40.68 27 -39.36 27 -38 27 C-38 26.34 -38 25.68 -38 25 C-36.75336669 24.49166409 -35.50250613 23.99368855 -34.25 23.5 C-33.55390625 23.2215625 -32.8578125 22.943125 -32.140625 22.65625 C-30 22 -30 22 -26 22 C-26 21.34 -26 20.68 -26 20 C-25.443125 19.7525 -24.88625 19.505 -24.3125 19.25 C-21.55839521 17.76129471 -19.30825486 16.11590028 -17 14 C-17 13.01 -17 12.02 -17 11 C-18.32 10.34 -19.64 9.68 -21 9 C-20.43410156 8.89042969 -19.86820313 8.78085938 -19.28515625 8.66796875 C-18.55167969 8.50941406 -17.81820312 8.35085937 -17.0625 8.1875 C-16.33160156 8.03667969 -15.60070312 7.88585937 -14.84765625 7.73046875 C-13.93306641 7.36888672 -13.93306641 7.36888672 -13 7 C-12.67 6.01 -12.34 5.02 -12 4 C-11.01 4 -10.02 4 -9 4 C-9 3.01 -9 2.02 -9 1 C-7.88625 1.20625 -6.7725 1.4125 -5.625 1.625 C-4.42875 1.74875 -3.2325 1.8725 -2 2 C-1.34 1.34 -0.68 0.68 0 0 Z " fill="#DB903E" transform="translate(148,147)"/>
<path d="M0 0 C1.32 0.33 2.64 0.66 4 1 C4 1.99 4 2.98 4 4 C3.34 4 2.68 4 2 4 C2 4.66 2 5.32 2 6 C0.02 6.66 -1.96 7.32 -4 8 C-4 8.66 -4 9.32 -4 10 C-6.97 10.66 -9.94 11.32 -13 12 C-12.505 12.721875 -12.01 13.44375 -11.5 14.1875 C-9.91577251 17.15792654 -9.6331962 18.6987658 -10 22 C-11 23 -11 23 -14.125 23.4375 C-17.94345392 23.9917917 -21.32219105 24.87414012 -25 26 C-25 25.01 -25 24.02 -25 23 C-24.34 23 -23.68 23 -23 23 C-23.33 20.69 -23.66 18.38 -24 16 C-24.99 15.67 -25.98 15.34 -27 15 C-27 14.34 -27 13.68 -27 13 C-19.375 11.75 -19.375 11.75 -16 14 C-16.33 12.35 -16.66 10.7 -17 9 C-15.91332031 8.81824219 -15.91332031 8.81824219 -14.8046875 8.6328125 C-9.71502427 7.75060421 -4.85116654 6.83557653 0 5 C0 3.35 0 1.7 0 0 Z " fill="#F1B469" transform="translate(125,127)"/>
<path d="M0 0 C0.66 0.33 1.32 0.66 2 1 C1.67 2.32 1.34 3.64 1 5 C0.01 5 -0.98 5 -2 5 C-2 5.66 -2 6.32 -2 7 C0.31 7 2.62 7 5 7 C4.01 8.98 3.02 10.96 2 13 C2.66 13.33 3.32 13.66 4 14 C3.34 15.65 2.68 17.3 2 19 C1.34 18.67 0.68 18.34 0 18 C-0.99 19.98 -1.98 21.96 -3 24 C-5.97 24 -8.94 24 -12 24 C-12.33 23.34 -12.66 22.68 -13 22 C-9.7 22 -6.4 22 -3 22 C-3 21.34 -3 20.68 -3 20 C-4.32 20 -5.64 20 -7 20 C-6.67 18.68 -6.34 17.36 -6 16 C-5.34 16 -4.68 16 -4 16 C-4 14.68 -4 13.36 -4 12 C-8.07964281 13.30155006 -8.07964281 13.30155006 -12 15 C-14.69565202 14.83219837 -17.32405554 14.38844355 -20 14 C-20 13.67 -20 13.34 -20 13 C-18.39125 12.9071875 -18.39125 12.9071875 -16.75 12.8125 C-12.91664748 12.3215648 -12.91664748 12.3215648 -10.5625 9.6875 C-8.6649197 6.9417798 -8.6649197 6.9417798 -9 3 C-7.88625 3.061875 -6.7725 3.12375 -5.625 3.1875 C-4.42875 3.125625 -3.2325 3.06375 -2 3 C-1.34 2.01 -0.68 1.02 0 0 Z " fill="#EEB46F" transform="translate(144,85)"/>
<path d="M0 0 C0 0.33 0 0.66 0 1 C-3.63 1.33 -7.26 1.66 -11 2 C-11.33 3.32 -11.66 4.64 -12 6 C-13.32 6.33 -14.64 6.66 -16 7 C-16.495 5.515 -16.495 5.515 -17 4 C-18.98 4.99 -18.98 4.99 -21 6 C-21 5.34 -21 4.68 -21 4 C-23.47266765 4.34444881 -23.47266765 4.34444881 -26 5 C-26.33 5.66 -26.66 6.32 -27 7 C-26.34 7 -25.68 7 -25 7 C-25 7.66 -25 8.32 -25 9 C-25.556875 8.649375 -26.11375 8.29875 -26.6875 7.9375 C-29.64625953 6.7380029 -30.97688902 7.04145262 -34 8 C-36.74572728 9.47987963 -36.74572728 9.47987963 -39 11 C-39.66 10.34 -40.32 9.68 -41 9 C-41.99 9.66 -42.98 10.32 -44 11 C-44.33 10.34 -44.66 9.68 -45 9 C-48.59038518 12.35102617 -50.84511032 14.78197979 -51.1953125 19.796875 C-51.17210938 20.77140625 -51.14890625 21.7459375 -51.125 22.75 C-51.10695313 23.73484375 -51.08890625 24.7196875 -51.0703125 25.734375 C-51.04710938 26.48203125 -51.02390625 27.2296875 -51 28 C-53.56400777 25.43599223 -53.32633634 24.31217985 -53.375 20.75 C-53.26227968 15.67758574 -52.60027974 12.78490947 -49 9 C-40.72450092 3.27080833 -31.34876222 2.51469542 -21.5625 1.375 C-20.48162109 1.2409375 -19.40074219 1.106875 -18.28710938 0.96875 C-12.14212711 0.23835793 -6.187316 -0.14313454 0 0 Z " fill="#FED19D" transform="translate(82,120)"/>
<path d="M0 0 C0.66 0 1.32 0 2 0 C1.79375 0.598125 1.5875 1.19625 1.375 1.8125 C0.69328085 4.28450846 0.69328085 4.28450846 3 7 C3.53625 6.62875 4.0725 6.2575 4.625 5.875 C7 5 7 5 10.1875 5.625 C13 7 13 7 13.875 9.125 C13.91625 9.74375 13.9575 10.3625 14 11 C14.99 11 15.98 11 17 11 C18.125 17.625 18.125 17.625 17 21 C17.99 21.33 18.98 21.66 20 22 C19.67 22.99 19.34 23.98 19 25 C18.33355469 24.38253906 17.66710937 23.76507813 16.98046875 23.12890625 C10.49956592 17.17372701 3.87287154 11.50361473 -3 6 C-1.125 1.125 -1.125 1.125 0 0 Z " fill="#D3A57B" transform="translate(89,51)"/>
<path d="M0 0 C-0.33 1.65 -0.66 3.3 -1 5 C1.475 5.99 1.475 5.99 4 7 C3.67 8.65 3.34 10.3 3 12 C-0.375 12.125 -0.375 12.125 -4 12 C-4.66 11.34 -5.32 10.68 -6 10 C-7.32 10 -8.64 10 -10 10 C-11.4606285 7.35261084 -12 6.10551666 -12 3 C-10.75823305 2.29773859 -9.50614401 1.61370891 -8.25 0.9375 C-7.20585938 0.36322266 -7.20585938 0.36322266 -6.140625 -0.22265625 C-3.63859372 -1.1312406 -2.4667645 -0.88336837 0 0 Z " fill="#DF9640" transform="translate(132,143)"/>
<path d="M0 0 C0.99 0.66 1.98 1.32 3 2 C3 2.66 3 3.32 3 4 C5.475 4.495 5.475 4.495 8 5 C8 6.32 8 7.64 8 9 C7.42507812 8.80535156 6.85015625 8.61070313 6.2578125 8.41015625 C3.56916223 7.92173362 2.36152223 8.37387357 -0.125 9.4375 C-3.83856502 11 -3.83856502 11 -6 11 C-6.33 11.99 -6.66 12.98 -7 14 C-10.44847383 16.52003857 -13.86573995 16.15901 -18 16 C-17.34 14.68 -16.68 13.36 -16 12 C-13.69 12 -11.38 12 -9 12 C-9 11.01 -9 10.02 -9 9 C-9.99 8.67 -10.98 8.34 -12 8 C-11.34 6.68 -10.68 5.36 -10 4 C-9.319375 4.515625 -8.63875 5.03125 -7.9375 5.5625 C-4.19881168 7.39207088 -1.99556587 6.86178872 2 6 C1.401875 5.71125 0.80375 5.4225 0.1875 5.125 C-2 4 -2 4 -5 2 C-2.6875 0.875 -2.6875 0.875 0 0 Z " fill="#EBAD61" transform="translate(136,111)"/>
<path d="M0 0 C0.66 0.66 1.32 1.32 2 2 C4.66242821 2.46290221 4.66242821 2.46290221 7.625 2.625 C9.12933594 2.73714844 9.12933594 2.73714844 10.6640625 2.8515625 C11.43492188 2.90054688 12.20578125 2.94953125 13 3 C13 3.33 13 3.66 13 4 C11.02 4 9.04 4 7 4 C7 4.66 7 5.32 7 6 C5.68 6 4.36 6 3 6 C2.9175 6.61875 2.835 7.2375 2.75 7.875 C2 10 2 10 0.0625 11.125 C-0.618125 11.41375 -1.29875 11.7025 -2 12 C-2.66 12.66 -3.32 13.32 -4 14 C-4.70074844 10.846632 -5 8.27275026 -5 5 C-7.80469824 3.74538203 -7.80469824 3.74538203 -9.875 4.5625 C-12.75163253 5.15474787 -14.39719908 4.22910044 -17 3 C-17 2.67 -17 2.34 -17 2 C-15.66195312 2.03480469 -15.66195312 2.03480469 -14.296875 2.0703125 C-13.12640625 2.08835938 -11.9559375 2.10640625 -10.75 2.125 C-9.58984375 2.14820313 -8.4296875 2.17140625 -7.234375 2.1953125 C-4.17213954 2.0103949 -2.55797249 1.60823023 0 0 Z " fill="#E9A64E" transform="translate(79,153)"/>
<path d="M0 0 C2.35981813 0.93578995 4.69631264 1.93347808 7 3 C7 3.66 7 4.32 7 5 C7.99 5 8.98 5 10 5 C9.67 6.32 9.34 7.64 9 9 C9.639375 9.12375 10.27875 9.2475 10.9375 9.375 C11.618125 9.58125 12.29875 9.7875 13 10 C13.33 10.66 13.66 11.32 14 12 C4.57465091 13.67561762 4.57465091 13.67561762 1 12 C-1.09669068 8.03126406 -2 5.51561274 -2 1 C-1.34 0.67 -0.68 0.34 0 0 Z " fill="#FDD7AD" transform="translate(109,31)"/>
<path d="M0 0 C3.87539562 6.62815679 2.39137014 15.66676098 0.9765625 22.94140625 C-1.07742587 29.37449783 -4.62344006 35.18132345 -8 41 C-8.66 40.01 -9.32 39.02 -10 38 C-9.25 34.875 -9.25 34.875 -8 32 C-7.34 31.67 -6.68 31.34 -6 31 C-5.855625 30.360625 -5.71125 29.72125 -5.5625 29.0625 C-5 27 -5 27 -2 25 C-1.27617533 22.94074861 -1.27617533 22.94074861 -1 21 C-1.928125 21.5259375 -1.928125 21.5259375 -2.875 22.0625 C-3.926875 22.5265625 -3.926875 22.5265625 -5 23 C-5.66 22.67 -6.32 22.34 -7 22 C-7 21.34 -7 20.68 -7 20 C-5.68 19.67 -4.36 19.34 -3 19 C-3.0928125 17.63875 -3.0928125 17.63875 -3.1875 16.25 C-3 13 -3 13 -1.5 11.1875 C0.86968857 7.73170417 0.23475574 4.06909954 0 0 Z " fill="#E4AA65" transform="translate(163,100)"/>
<path d="M0 0 C0.99 0.33 1.98 0.66 3 1 C2.67 2.32 2.34 3.64 2 5 C2.99 5.66 3.98 6.32 5 7 C2.38444607 15.51446278 -1.08845774 21.36147196 -7 28 C-7 25 -7 25 -5 21.75 C-2.1552005 16.45688873 -2.83479596 11.00355029 -3.15234375 5.1953125 C-3.10207031 4.14085938 -3.05179687 3.08640625 -3 2 C-2.01 1.34 -1.02 0.68 0 0 Z " fill="#CCA787" transform="translate(113,73)"/>
<path d="M0 0 C0.33 1.65 0.66 3.3 1 5 C6.94 5.99 6.94 5.99 13 7 C13 8.32 13 9.64 13 11 C12.01 10.67 11.02 10.34 10 10 C10 9.34 10 8.68 10 8 C6.7 8.66 3.4 9.32 0 10 C0 10.66 0 11.32 0 12 C-3.45195767 10.5741914 -5.1014256 8.90253666 -7.25 5.875 C-8.03117187 4.78832031 -8.03117187 4.78832031 -8.828125 3.6796875 C-9.21484375 3.12539062 -9.6015625 2.57109375 -10 2 C-7 1 -7 1 -5 1 C-3 0 -3 0 0 0 Z " fill="#E1A05B" transform="translate(40,147)"/>
<path d="M0 0 C1.65 0 3.3 0 5 0 C5.33 1.65 5.66 3.3 6 5 C7.32 4.67 8.64 4.34 10 4 C11 7 11 7 9.5625 10.1875 C8.7890625 11.5796875 8.7890625 11.5796875 8 13 C10.64 12.67 13.28 12.34 16 12 C15.67 12.99 15.34 13.98 15 15 C13.22950311 15.05410687 11.45853151 15.09284119 9.6875 15.125 C8.20830078 15.15980469 8.20830078 15.15980469 6.69921875 15.1953125 C4 15 4 15 1 13 C1 12.34 1 11.68 1 11 C2.65 10.67 4.3 10.34 6 10 C6 9.34 6 8.68 6 8 C4.68 8.33 3.36 8.66 2 9 C1.67 7.35 1.34 5.7 1 4 C1.66 4 2.32 4 3 4 C3 3.01 3 2.02 3 1 C2.01 0.67 1.02 0.34 0 0 Z " fill="#F7B86A" transform="translate(77,141)"/>
<path d="M0 0 C0.99 0.33 1.98 0.66 3 1 C-5.0692702 9.9058835 -19.40398665 15.0434666 -31 17 C-32.83848168 17.07790887 -34.67942827 17.10793615 -36.51953125 17.09765625 C-37.54111328 17.09443359 -38.56269531 17.09121094 -39.61523438 17.08789062 C-40.67033203 17.07951172 -41.72542969 17.07113281 -42.8125 17.0625 C-43.88693359 17.05798828 -44.96136719 17.05347656 -46.06835938 17.04882812 C-48.71229683 17.03707729 -51.35611952 17.02064787 -54 17 C-54 16.67 -54 16.34 -54 16 C-53.40574219 15.98018066 -52.81148438 15.96036133 -52.19921875 15.93994141 C-49.46575581 15.84376007 -46.73296197 15.73446443 -44 15.625 C-42.59814453 15.57859375 -42.59814453 15.57859375 -41.16796875 15.53125 C-35.47930463 15.29256479 -30.48933692 14.48067641 -25 13 C-23.68 13 -22.36 13 -21 13 C-21 12.34 -21 11.68 -21 11 C-19.75336669 10.49166409 -18.50250613 9.99368855 -17.25 9.5 C-16.20585938 9.08234375 -16.20585938 9.08234375 -15.140625 8.65625 C-13 8 -13 8 -9 8 C-9 7.34 -9 6.68 -9 6 C-8.443125 5.7525 -7.88625 5.505 -7.3125 5.25 C-4.83923251 4.01743528 -4.83923251 4.01743528 -2.4375 1.8125 C-1.633125 1.214375 -0.82875 0.61625 0 0 Z " fill="#BE8F63" transform="translate(131,161)"/>
<path d="M0 0 C5.75 -0.125 5.75 -0.125 8 1 C8 1.66 8 2.32 8 3 C8.66 3.33 9.32 3.66 10 4 C9.401875 4.061875 8.80375 4.12375 8.1875 4.1875 C5.75384184 4.8236636 5.75384184 4.8236636 4.625 7.4375 C2.53313042 10.73621742 0.70649471 11.09396796 -3 12 C-3.66 11.01 -4.32 10.02 -5 9 C-4.34 9 -3.68 9 -3 9 C-3.33 6.69 -3.66 4.38 -4 2 C-2.68 2 -1.36 2 0 2 C0 1.34 0 0.68 0 0 Z " fill="#E1973D" transform="translate(86,157)"/>
<path d="M0 0 C0.33 0 0.66 0 1 0 C2.04694288 36.42958567 2.04694288 36.42958567 -5 47 C-5.08728882 43.75017 -5.14048658 40.5006425 -5.1875 37.25 C-5.21263672 36.32960937 -5.23777344 35.40921875 -5.26367188 34.4609375 C-5.27333984 33.57148437 -5.28300781 32.68203125 -5.29296875 31.765625 C-5.3086792 30.94868164 -5.32438965 30.13173828 -5.34057617 29.29003906 C-4.91815669 26.44968442 -3.9560866 25.07230448 -2 23 C-1.34 23 -0.68 23 0 23 C0 15.41 0 7.82 0 0 Z " fill="#D9AF7E" transform="translate(169,73)"/>
<path d="M0 0 C0.061875 0.61875 0.12375 1.2375 0.1875 1.875 C0.828919 4.27761141 0.828919 4.27761141 3.5625 5.25 C4.366875 5.4975 5.17125 5.745 6 6 C6 6.99 6 7.98 6 9 C0.63560356 11.68219822 -3.01006953 12.3152595 -9 12 C-8.67 10.68 -8.34 9.36 -8 8 C-6.02 8 -4.04 8 -2 8 C-2 7.34 -2 6.68 -2 6 C-2.99 5.67 -3.98 5.34 -5 5 C-4 2 -4 2 -1.9375 0.8125 C-1.298125 0.544375 -0.65875 0.27625 0 0 Z " fill="#FDD2A2" transform="translate(143,52)"/>
<path d="M0 0 C1.32 0.66 2.64 1.32 4 2 C3.01 2 2.02 2 1 2 C1 2.66 1 3.32 1 4 C-7.35041616 6.46442534 -14.99537326 7.47092782 -23.6875 7.375 C-24.75033203 7.38660156 -25.81316406 7.39820313 -26.90820312 7.41015625 C-33.47747393 7.38584063 -38.92845972 6.54211367 -45 4 C-45 3.67 -45 3.34 -45 3 C-38.375 2.75 -38.375 2.75 -35 5 C-32.48176099 5.2757294 -32.48176099 5.2757294 -29.67578125 5.1953125 C-28.64775391 5.18886719 -27.61972656 5.18242187 -26.56054688 5.17578125 C-25.48869141 5.15902344 -24.41683594 5.14226562 -23.3125 5.125 C-21.68731445 5.11146484 -21.68731445 5.11146484 -20.02929688 5.09765625 C-17.3526429 5.0740734 -14.67643203 5.04116126 -12 5 C-12 4.34 -12 3.68 -12 3 C-11.21753906 2.95101562 -10.43507812 2.90203125 -9.62890625 2.8515625 C-8.11103516 2.73941406 -8.11103516 2.73941406 -6.5625 2.625 C-5.55316406 2.55539063 -4.54382813 2.48578125 -3.50390625 2.4140625 C-2.26447266 2.20910156 -2.26447266 2.20910156 -1 2 C-0.67 1.34 -0.34 0.68 0 0 Z " fill="#D28B45" transform="translate(109,170)"/>
<path d="M0 0 C0.99 0.66 1.98 1.32 3 2 C2.67 3.32 2.34 4.64 2 6 C2 5.01 2 4.02 2 3 C1.01 3.495 1.01 3.495 0 4 C0 4.99 0 5.98 0 7 C-0.66 7 -1.32 7 -2 7 C-1.67 8.32 -1.34 9.64 -1 11 C0.32 11 1.64 11 3 11 C3 11.66 3 12.32 3 13 C1.35 13.33 -0.3 13.66 -2 14 C-2 14.66 -2 15.32 -2 16 C-3.65 16 -5.3 16 -7 16 C-7 15.34 -7 14.68 -7 14 C-8.65 14.33 -10.3 14.66 -12 15 C-12.33 13.35 -12.66 11.7 -13 10 C-12.34 10 -11.68 10 -11 10 C-10.67 10.66 -10.34 11.32 -10 12 C-8.02463255 11.65213292 -8.02463255 11.65213292 -6 11 C-5.67 10.34 -5.34 9.68 -5 9 C-4.34 9 -3.68 9 -3 9 C-3.33 6.69 -3.66 4.38 -4 2 C-2.68 1.34 -1.36 0.68 0 0 Z " fill="#FABE77" transform="translate(80,138)"/>
<path d="M0 0 C0 0.33 0 0.66 0 1 C-3.63 1.33 -7.26 1.66 -11 2 C-11.33 3.32 -11.66 4.64 -12 6 C-13.32 6.33 -14.64 6.66 -16 7 C-16.33 6.01 -16.66 5.02 -17 4 C-18.98 4.99 -18.98 4.99 -21 6 C-21 5.34 -21 4.68 -21 4 C-26.94 4.33 -32.88 4.66 -39 5 C-39 4.67 -39 4.34 -39 4 C-34.89338458 3.42250121 -30.7857367 2.85318806 -26.67700195 2.29101562 C-25.28314603 2.0991814 -23.88958091 1.90522042 -22.49633789 1.70898438 C-14.96874677 0.65020586 -7.61676834 -0.2699187 0 0 Z " fill="#ECC49B" transform="translate(82,120)"/>
<path d="M0 0 C0.33 0 0.66 0 1 0 C1 1.65 1 3.3 1 5 C1.99 5 2.98 5 4 5 C4.33 6.32 4.66 7.64 5 9 C5.66 9 6.32 9 7 9 C7.33 8.34 7.66 7.68 8 7 C9.35432675 8.31200404 10.68733482 9.64631404 12 11 C12 11.33 12 11.66 12 12 C10.02043559 11.85966889 8.04134859 11.7125877 6.0625 11.5625 C4.96035156 11.48128906 3.85820313 11.40007812 2.72265625 11.31640625 C0 11 0 11 -1 10 C-1.23880597 2.47761194 -1.23880597 2.47761194 0 0 Z " fill="#F3B874" transform="translate(50,141)"/>
<path d="M0 0 C0.33 0.99 0.66 1.98 1 3 C-0.4375 5.6875 -0.4375 5.6875 -2 8 C-1.01 8.33 -0.02 8.66 1 9 C1.33 9.99 1.66 10.98 2 12 C1.01 12 0.02 12 -1 12 C-0.505 12.886875 -0.01 13.77375 0.5 14.6875 C1.94378674 17.87586238 2.30159922 19.58187546 2 23 C-2.26646105 19.5461982 -3.78673063 14.73662203 -4.4375 9.4375 C-3.91871573 5.36133788 -2.50350239 3.20761244 0 0 Z " fill="#E4C9AE" transform="translate(80,29)"/>
<path d="M0 0 C10.73623447 -0.7920173 17.65048996 0.15002724 27 6 C27 6.66 27 7.32 27 8 C26.01 8.33 25.02 8.66 24 9 C21.95912192 7.73012031 19.96374635 6.38617389 18 5 C12.08370909 0.95960621 5.88404218 1.72422976 -1 2 C-0.67 1.34 -0.34 0.68 0 0 Z " fill="#F7DFC7" transform="translate(103,15)"/>
<path d="M0 0 C1.65 0.33 3.3 0.66 5 1 C5 1.99 5 2.98 5 4 C4.01 4.495 4.01 4.495 3 5 C2.67 5.99 2.34 6.98 2 8 C1.46375 8.474375 0.9275 8.94875 0.375 9.4375 C-0.07875 9.953125 -0.5325 10.46875 -1 11 C-0.77242269 13.16299211 -0.77242269 13.16299211 0 15 C-2.125 13.5 -2.125 13.5 -4 11 C-3.76054668 6.74970348 -2.34074109 3.51111163 0 0 Z " fill="#E4B582" transform="translate(86,41)"/>
<path d="M0 0 C0 0.99 0 1.98 0 3 C-0.66 3.66 -1.32 4.32 -2 5 C-2.33 4.67 -2.66 4.34 -3 4 C-3.99 5.98 -4.98 7.96 -6 10 C-8.97 10 -11.94 10 -15 10 C-15.33 9.34 -15.66 8.68 -16 8 C-12.7 8 -9.4 8 -6 8 C-6 7.34 -6 6.68 -6 6 C-7.32 6 -8.64 6 -10 6 C-9.67 4.68 -9.34 3.36 -9 2 C-6.03 1.34 -3.06 0.68 0 0 Z " fill="#ECB064" transform="translate(147,99)"/>
<path d="M0 0 C2.97 0 5.94 0 9 0 C9.042721 1.66611905 9.04063832 3.33382885 9 5 C8 6 8 6 5.4375 6.0625 C4.2309375 6.0315625 4.2309375 6.0315625 3 6 C2.67 5.01 2.34 4.02 2 3 C1.01 3 0.02 3 -1 3 C-0.67 2.01 -0.34 1.02 0 0 Z " fill="#FCCE9B" transform="translate(142,65)"/>
<path d="M0 0 C0.53625 0.268125 1.0725 0.53625 1.625 0.8125 C-0.375 2.8125 -0.375 2.8125 -2.8125 3.625 C-5.56692487 4.59863409 -5.56692487 4.59863409 -6.75 7.25 C-8.98256824 10.77058838 -11.53392198 11.41574436 -15.375 12.8125 C-16.365 13.3075 -16.365 13.3075 -17.375 13.8125 C-17.00690851 11.28920613 -16.76740919 10.12624005 -14.73828125 8.50390625 C-14.06152344 8.13136719 -13.38476562 7.75882813 -12.6875 7.375 C-9.87720904 5.76121932 -7.50540136 4.13526187 -5.125 1.9375 C-2.375 -0.1875 -2.375 -0.1875 0 0 Z " fill="#EFD3B9" transform="translate(98.375,17.1875)"/>
<path d="M0 0 C0.66 0 1.32 0 2 0 C2 2.64 2 5.28 2 8 C-0.31 8 -2.62 8 -5 8 C-5.66 5.69 -6.32 3.38 -7 1 C-5.68 1.33 -4.36 1.66 -3 2 C-3 2.66 -3 3.32 -3 4 C-2.34 4 -1.68 4 -1 4 C-0.67 2.68 -0.34 1.36 0 0 Z " fill="#EAAB63" transform="translate(46,145)"/>
<path d="M0 0 C-1.58897004 4.04809035 -4.30625948 6.37563353 -7.5 9.25 C-8.24830078 9.93835938 -8.24830078 9.93835938 -9.01171875 10.640625 C-12.74102493 14 -12.74102493 14 -15 14 C-13.79618552 11.50638429 -12.54571278 9.31856917 -11 7 C-10.01 7 -9.02 7 -8 7 C-8 6.34 -8 5.68 -8 5 C-2.52380952 0 -2.52380952 0 0 0 Z " fill="#D59250" transform="translate(150,147)"/>
<path d="M0 0 C0 0.66 0 1.32 0 2 C-1.47714466 3.22024994 -2.95851761 4.43753734 -4.4921875 5.5859375 C-7.14760687 8.07625307 -7.94233366 10.17421794 -8.1953125 13.796875 C-8.17210938 14.77140625 -8.14890625 15.7459375 -8.125 16.75 C-8.10695313 17.73484375 -8.08890625 18.7196875 -8.0703125 19.734375 C-8.04710938 20.48203125 -8.02390625 21.2296875 -8 22 C-10.56400777 19.43599223 -10.32633634 18.31217985 -10.375 14.75 C-10.28244952 9.69938784 -9.46340823 6.84823137 -6 3 C-2.6 0 -2.6 0 0 0 Z " fill="#E3C5A9" transform="translate(39,126)"/>
<path d="M0 0 C0.89203125 0.00902344 1.7840625 0.01804688 2.703125 0.02734375 C3.37859375 0.03894531 4.0540625 0.05054688 4.75 0.0625 C4.42 1.7125 4.09 3.3625 3.75 5.0625 C2.76 4.7325 1.77 4.4025 0.75 4.0625 C-1.39255793 4.45182856 -1.39255793 4.45182856 -3.25 5.0625 C-3.58 4.0725 -3.91 3.0825 -4.25 2.0625 C-5.57 2.3925 -6.89 2.7225 -8.25 3.0625 C-8.58 2.4025 -8.91 1.7425 -9.25 1.0625 C-6.09493858 0.12630187 -3.28413498 -0.0432123 0 0 Z " fill="#E39A43" transform="translate(106.25,152.9375)"/>
<path d="M0 0 C3.563579 -0.08099043 6.56581379 0.1137584 10 1 C11.66623639 1.03786901 13.33397597 1.04627845 15 1 C14.67 1.99 14.34 2.98 14 4 C12.22950311 4.05410687 10.45853151 4.09284119 8.6875 4.125 C7.20830078 4.15980469 7.20830078 4.15980469 5.69921875 4.1953125 C3 4 3 4 0 2 C0 1.34 0 0.68 0 0 Z " fill="#F1B264" transform="translate(78,152)"/>
<path d="M0 0 C1.32 0.66 2.64 1.32 4 2 C2.25 7.75 2.25 7.75 0 10 C-0.66 9.67 -1.32 9.34 -2 9 C-2.25 3.375 -2.25 3.375 0 0 Z " fill="#EDB779" transform="translate(33,139)"/>
<path d="M0 0 C0.66 0 1.32 0 2 0 C2 0.99 2 1.98 2 3 C2.99 3.66 3.98 4.32 5 5 C6.1875 8.125 6.1875 8.125 7 11 C6.34 11 5.68 11 5 11 C5 10.34 5 9.68 5 9 C4.01 9.33 3.02 9.66 2 10 C1.01 9.34 0.02 8.68 -1 8 C-1.25660094 4.92078868 -1.39431504 2.78863007 0 0 Z " fill="#FBC17A" transform="translate(53,133)"/>
<path d="M0 0 C1.32 0 2.64 0 4 0 C4.33 1.98 4.66 3.96 5 6 C1.36576791 8.32590854 -1.77088331 8.16265833 -6 8 C-5.34 6.68 -4.68 5.36 -4 4 C-1.69 4 0.62 4 3 4 C3 3.01 3 2.02 3 1 C2.01 0.67 1.02 0.34 0 0 Z " fill="#F0B36E" transform="translate(124,119)"/>
<path d="M0 0 C0.99 0.33 1.98 0.66 3 1 C-1.35383829 5.72256726 -7.19809713 9.71014798 -13.625 10.375 C-14.40875 10.25125 -15.1925 10.1275 -16 10 C-13 8 -13 8 -9 8 C-9 7.34 -9 6.68 -9 6 C-8.1646875 5.62875 -8.1646875 5.62875 -7.3125 5.25 C-4.83923251 4.01743528 -4.83923251 4.01743528 -2.4375 1.8125 C-1.633125 1.214375 -0.82875 0.61625 0 0 Z " fill="#C9884E" transform="translate(131,161)"/>
<path d="M0 0 C0.99 0.33 1.98 0.66 3 1 C2.67 2.32 2.34 3.64 2 5 C2.99 5.66 3.98 6.32 5 7 C4.52269162 8.4589426 4.04308958 9.91713496 3.5625 11.375 C3.29566406 12.18710938 3.02882813 12.99921875 2.75390625 13.8359375 C2 16 2 16 1 18 C0.34 17.67 -0.32 17.34 -1 17 C-0.67 16.278125 -0.34 15.55625 0 14.8125 C1.56995794 10.39699328 1.24739752 6.49063107 0 2 C-0.66 1.67 -1.32 1.34 -2 1 C-1.34 0.67 -0.68 0.34 0 0 Z " fill="#DCA772" transform="translate(113,73)"/>
<path d="M0 0 C0.99 0.33 1.98 0.66 3 1 C3 1.66 3 2.32 3 3 C3.99 3 4.98 3 6 3 C5.67 3.99 5.34 4.98 5 6 C5 5.34 5 4.68 5 4 C4.360625 3.896875 3.72125 3.79375 3.0625 3.6875 C2.381875 3.460625 1.70125 3.23375 1 3 C0.67 2.01 0.34 1.02 0 0 Z M8 7 C8.66 7.99 9.32 8.98 10 10 C4.375 11.125 4.375 11.125 1 10 C1 9.34 1 8.68 1 8 C3.53421737 6.73289132 5.19438238 6.71943824 8 7 Z " fill="#FCD5A8" transform="translate(113,33)"/>
<path d="M0 0 C1.65 0.33 3.3 0.66 5 1 C5.33 3.31 5.66 5.62 6 8 C5.34 7.67 4.68 7.34 4 7 C4 5.68 4 4.36 4 3 C3.34 3 2.68 3 2 3 C2 4.32 2 5.64 2 7 C1.01 7 0.02 7 -1 7 C-1.625 5.1875 -1.625 5.1875 -2 3 C-1.34 2.01 -0.68 1.02 0 0 Z " fill="#FDCD92" transform="translate(59,133)"/>
<path d="M0 0 C0.99 0 1.98 0 3 0 C3 0.66 3 1.32 3 2 C3.99 2 4.98 2 6 2 C6 3.32 6 4.64 6 6 C6.66 6 7.32 6 8 6 C8.33 6.99 8.66 7.98 9 9 C4.56541027 7.6062718 2.12621626 5.39417765 -1 2 C-0.67 1.34 -0.34 0.68 0 0 Z " fill="#CA8A50" transform="translate(40,157)"/>
<path d="M0 0 C2.97 0.495 2.97 0.495 6 1 C6 2.32 6 3.64 6 5 C2.71303767 5.79953138 1.28976808 6.09658936 -2 5 C-1.34 3.35 -0.68 1.7 0 0 Z " fill="#E39C42" transform="translate(133,122)"/>
<path d="M0 0 C0.99 0 1.98 0 3 0 C5.60250805 3.37362154 6.36265043 5.76907828 6 10 C4.68 10.33 3.36 10.66 2 11 C2 10.01 2 9.02 2 8 C2.66 8 3.32 8 4 8 C3.525625 7.608125 3.05125 7.21625 2.5625 6.8125 C0.64820367 4.59191626 0.38733012 2.86624291 0 0 Z " fill="#FDCD94" transform="translate(69,132)"/>
<path d="M0 0 C0.33 0 0.66 0 1 0 C0.67 3.96 0.34 7.92 0 12 C-1.32 12 -2.64 12 -4 12 C-4 11.01 -4 10.02 -4 9 C-4.66 8.34 -5.32 7.68 -6 7 C-4.7934375 6.6596875 -4.7934375 6.6596875 -3.5625 6.3125 C-2.716875 5.879375 -1.87125 5.44625 -1 5 C-0.10613836 2.45224694 -0.10613836 2.45224694 0 0 Z " fill="#F2B574" transform="translate(46,137)"/>
<path d="M0 0 C1.32 0 2.64 0 4 0 C4.66 2.64 5.32 5.28 6 8 C5.01 8 4.02 8 3 8 C3 7.34 3 6.68 3 6 C2.34 6 1.68 6 1 6 C0.67 4.02 0.34 2.04 0 0 Z " fill="#FED09B" transform="translate(81,132)"/>
<path d="M0 0 C2 3.75 2 3.75 2 6 C0.34928604 7.02611949 -1.31970006 8.02308143 -3 9 C-4.75149165 10.58245275 -4.75149165 10.58245275 -6 12 C-6.66 11.67 -7.32 11.34 -8 11 C-7.59007813 10.45730469 -7.18015625 9.91460937 -6.7578125 9.35546875 C-6.21898438 8.64003906 -5.68015625 7.92460938 -5.125 7.1875 C-4.59132813 6.47980469 -4.05765625 5.77210937 -3.5078125 5.04296875 C-2.29185219 3.39543703 -1.13583859 1.70375789 0 0 Z " fill="#E7B989" transform="translate(104,101)"/>
<path d="M0 0 C0.66 0.33 1.32 0.66 2 1 C1.2884375 2.051875 1.2884375 2.051875 0.5625 3.125 C-1.08739857 6.16081337 -1.60368464 8.59168786 -2 12 C-2.33 12 -2.66 12 -3 12 C-5.14285714 4.57142857 -5.14285714 4.57142857 -6 1 C-5.34 1 -4.68 1 -4 1 C-3.67 1.66 -3.34 2.32 -3 3 C-2.01 2.01 -1.02 1.02 0 0 Z " fill="#ECC397" transform="translate(85,40)"/>
<path d="M0 0 C6.625 -0.25 6.625 -0.25 10 2 C12.73872955 2.45772063 12.73872955 2.45772063 15.6875 2.625 C16.68136719 2.69976562 17.67523438 2.77453125 18.69921875 2.8515625 C19.45847656 2.90054688 20.21773437 2.94953125 21 3 C21 3.33 21 3.66 21 4 C13.37048445 4.34855655 7.07555499 4.0017506 0 1 C0 0.67 0 0.34 0 0 Z " fill="#CE9451" transform="translate(64,173)"/>
<path d="M0 0 C2.31 0 4.62 0 7 0 C7 0.66 7 1.32 7 2 C5.35 2.33 3.7 2.66 2 3 C2 3.66 2 4.32 2 5 C0.68 5 -0.64 5 -2 5 C-1.34 3.35 -0.68 1.7 0 0 Z " fill="#FAC388" transform="translate(76,149)"/>
<path d="M0 0 C1.32 0.33 2.64 0.66 4 1 C4 1.66 4 2.32 4 3 C4.99 3.33 5.98 3.66 7 4 C7 4.66 7 5.32 7 6 C5.02 6 3.04 6 1 6 C0.67 4.02 0.34 2.04 0 0 Z " fill="#FCCB96" transform="translate(107,129)"/>
<path d="M0 0 C0.66 0 1.32 0 2 0 C1.44854729 5.23880078 0.57077907 9.97350697 -1 15 C-1.33 15 -1.66 15 -2 15 C-1.85879286 13.06215735 -1.71187127 11.12473045 -1.5625 9.1875 C-1.48128906 8.10855469 -1.40007812 7.02960938 -1.31640625 5.91796875 C-1 3 -1 3 0 0 Z " fill="#DBB081" transform="translate(166,105)"/>
<path d="M0 0 C1.32 0.33 2.64 0.66 4 1 C4 1.99 4 2.98 4 4 C-0.625 6.125 -0.625 6.125 -4 5 C-2.68 3.35 -1.36 1.7 0 0 Z " fill="#EBAE5F" transform="translate(137,90)"/>
<path d="M0 0 C0.99 0.33 1.98 0.66 3 1 C2.38461538 6.53846154 2.38461538 6.53846154 0.4375 8.875 C-0.036875 9.24625 -0.51125 9.6175 -1 10 C-2.25888439 6.22334682 -1.34883633 4.64979242 0 1 C0 0.67 0 0.34 0 0 Z " fill="#DDA160" transform="translate(155,131)"/>
<path d="M0 0 C2.31 0.33 4.62 0.66 7 1 C7 1.99 7 2.98 7 4 C6.01 4.66 5.02 5.32 4 6 C3.01 5.67 2.02 5.34 1 5 C1.66 5 2.32 5 3 5 C2.2575 4.319375 2.2575 4.319375 1.5 3.625 C0 2 0 2 0 0 Z " fill="#FAC389" transform="translate(111,130)"/>
<path d="M0 0 C0.66 0.33 1.32 0.66 2 1 C0.35 4.63 -1.3 8.26 -3 12 C-3.33 12 -3.66 12 -4 12 C-4.1875 8.625 -4.1875 8.625 -4 5 C-3.01 4.34 -2.02 3.68 -1 3 C-0.67 2.01 -0.34 1.02 0 0 Z " fill="#D8A773" transform="translate(162,122)"/>
<path d="M0 0 C0.66 0.99 1.32 1.98 2 3 C-0.31 3.33 -2.62 3.66 -5 4 C-5.66 3.01 -6.32 2.02 -7 1 C-4.46578263 -0.26710868 -2.80561762 -0.28056176 0 0 Z " fill="#E3A55F" transform="translate(123,89)"/>
<path d="M0 0 C2.31 0 4.62 0 7 0 C2.81538462 4.92307692 2.81538462 4.92307692 -1.3125 5.3125 C-2.199375 5.209375 -3.08625 5.10625 -4 5 C-3.67 4.34 -3.34 3.68 -3 3 C-1.02 3 0.96 3 3 3 C3 2.34 3 1.68 3 1 C2.01 0.67 1.02 0.34 0 0 Z " fill="#FCCA90" transform="translate(138,57)"/>
<path d="M0 0 C2.475 0.495 2.475 0.495 5 1 C5.33 1.99 5.66 2.98 6 4 C4.35 4.33 2.7 4.66 1 5 C0.67 3.35 0.34 1.7 0 0 Z " fill="#FEE3C1" transform="translate(109,33)"/>
<path d="M0 0 C3.63 0.33 7.26 0.66 11 1 C11 2.32 11 3.64 11 5 C10.01 4.67 9.02 4.34 8 4 C8 3.34 8 2.68 8 2 C7.05125 2.04125 6.1025 2.0825 5.125 2.125 C2 2 2 2 0 0 Z " fill="#E5A150" transform="translate(42,153)"/>
<path d="M0 0 C1.98 0 3.96 0 6 0 C5.34 1.32 4.68 2.64 4 4 C2.35 4 0.7 4 -1 4 C-0.67 2.68 -0.34 1.36 0 0 Z " fill="#E1A056" transform="translate(129,151)"/>
<path d="M0 0 C2.125 0.375 2.125 0.375 4 1 C3.67 1.99 3.34 2.98 3 4 C-0.0625 5.1875 -0.0625 5.1875 -3 6 C-2.42655063 3.13275314 -2.1385485 2.1385485 0 0 Z " fill="#ECB162" transform="translate(152,82)"/>
<path d="M0 0 C2.97246802 2.54782974 4.41535288 5.45340883 6 9 C6 9.66 6 10.32 6 11 C5.01 11 4.02 11 3 11 C2.49384702 9.73160474 1.99530901 8.46016898 1.5 7.1875 C1.2215625 6.47980469 0.943125 5.77210937 0.65625 5.04296875 C0 3 0 3 0 0 Z " fill="#EBD2B5" transform="translate(159,50)"/>
<path d="M0 0 C0.99 0.33 1.98 0.66 3 1 C0.36 3.97 -2.28 6.94 -5 10 C-5 6.60406522 -4.47834052 5.93380119 -2.5 3.3125 C-2.0359375 2.68988281 -1.571875 2.06726563 -1.09375 1.42578125 C-0.7328125 0.95527344 -0.371875 0.48476562 0 0 Z " fill="#DBB188" transform="translate(111,91)"/>
<path d="M0 0 C1.96446905 1.6344795 2.92317791 2.46429394 3.29296875 5.04296875 C3.1953125 7.02864583 3.09765625 9.01432292 3 11 C2.34 10.67 1.68 10.34 1 10 C0.5859375 7.71484375 0.5859375 7.71484375 0.375 4.9375 C0.30023438 4.01839844 0.22546875 3.09929687 0.1484375 2.15234375 C0.09945312 1.44207031 0.05046875 0.73179688 0 0 Z " fill="#F0C18A" transform="translate(166,79)"/>
<path d="M0 0 C1.32 0 2.64 0 4 0 C4 1.32 4 2.64 4 4 C4.33 4.66 4.66 5.32 5 6 C3.02 5.34 1.04 4.68 -1 4 C-0.67 2.68 -0.34 1.36 0 0 Z " fill="#FDD6AB" transform="translate(122,46)"/>
<path d="M0 0 C0.33 0 0.66 0 1 0 C1 1.98 1 3.96 1 6 C-0.32 6.33 -1.64 6.66 -3 7 C-2.25 2.25 -2.25 2.25 0 0 Z " fill="#FABE7E" transform="translate(88,147)"/>
<path d="M0 0 C-1.49097658 3.7952131 -3.75700849 5.61042731 -7 8 C-6.44414399 4.1090079 -4.34122117 0 0 0 Z " fill="#CD965F" transform="translate(150,147)"/>
<path d="M0 0 C0.99 0.33 1.98 0.66 3 1 C1.68 3.31 0.36 5.62 -1 8 C-1.33 8 -1.66 8 -2 8 C-2 5.69 -2 3.38 -2 1 C-1.34 0.67 -0.68 0.34 0 0 Z " fill="#F3C492" transform="translate(32,136)"/>
<path d="M0 0 C2.625 -0.1875 2.625 -0.1875 5 0 C5 0.66 5 1.32 5 2 C3.35 2.33 1.7 2.66 0 3 C-0.33 3.99 -0.66 4.98 -1 6 C-1.33 5.01 -1.66 4.02 -2 3 C-1.34 2.01 -0.68 1.02 0 0 Z " fill="#FAD5AD" transform="translate(40,125)"/>
<path d="M0 0 C2.475 0.99 2.475 0.99 5 2 C3.75 3.5625 3.75 3.5625 2 5 C-0.1875 4.6875 -0.1875 4.6875 -2 4 C-1.34 4 -0.68 4 0 4 C0 2.68 0 1.36 0 0 Z " fill="#E39D4F" transform="translate(83,162)"/>
<path d="M0 0 C-0.33 1.32 -0.66 2.64 -1 4 C-1.66 4 -2.32 4 -3 4 C-3.33 3.01 -3.66 2.02 -4 1 C-5.32 1.33 -6.64 1.66 -8 2 C-8.33 1.34 -8.66 0.68 -9 0 C-5.67465243 -1.10844919 -3.37817425 -0.84454356 0 0 Z " fill="#E8A14A" transform="translate(106,154)"/>
<path d="M0 0 C3 1 3 1 5 4 C5 4.99 5 5.98 5 7 C2 6 2 6 0 3 C0 2.01 0 1.02 0 0 Z " fill="#FCC58D" transform="translate(94,140)"/>
<path d="M0 0 C0 0.99 0 1.98 0 3 C-2.97 2.505 -2.97 2.505 -6 2 C-6 1.34 -6 0.68 -6 0 C-3.50907189 -1.24546405 -2.58919267 -0.7767578 0 0 Z " fill="#F9C590" transform="translate(124,128)"/>
<path d="M0 0 C0.99 0 1.98 0 3 0 C5 3 5 3 4.625 5.1875 C4.41875 5.785625 4.2125 6.38375 4 7 C2.02 3.535 2.02 3.535 0 0 Z " fill="#D2A272" transform="translate(30,148)"/>
<path d="M0 0 C-0.33 0.99 -0.66 1.98 -1 3 C-3.31 2.67 -5.62 2.34 -8 2 C-8 1.34 -8 0.68 -8 0 C-4.71303767 -0.79953138 -3.28976808 -1.09658936 0 0 Z " fill="#FCCE99" transform="translate(137,54)"/>
</svg>
